<?xml version="1.0"?>
<svg width="512" height="512" xmlns="http://www.w3.org/2000/svg" xmlns:svg="http://www.w3.org/2000/svg" preserveAspectRatio="xMidYMid meet" version="1.0">
 <metadata>Created by potrace 1.16, written by Peter Selinger 2001-2019</metadata>
 <g class="layer">
  <title>Layer 1</title>
  <g fill="#FFF" id="svg_1" transform="matrix(0.156485 0 0 -0.147091 -145.033 -111.262)">
   <path d="m1353,-824c-28,-24 -28,-25 -28,-143c1,-123 16,-218 61,-376l25,-88l-21,-26c-28,-36 -27,-115 4,-197l24,-64l-29,-62c-81,-171 -126,-379 -136,-626l-6,-152l-36,-7c-84,-15 -205,-43 -191,-44c20,-1 189,18 216,25c20,5 21,1 27,-70c10,-112 34,-200 83,-303l44,-91l-40,-60c-38,-56 -91,-178 -89,-205c0,-6 9,12 19,41c21,59 67,142 102,185l23,29l34,-43l34,-42l-27,-48c-25,-45 -76,-171 -76,-187c1,-4 16,25 34,65c19,39 48,92 66,118l31,45l41,-35c23,-19 46,-35 51,-35c5,0 6,-8 2,-17c-18,-42 -65,-187 -62,-190c2,-1 21,40 41,92c21,52 40,95 43,95c3,0 17,-8 31,-19c70,-49 205,-104 287,-116c29,-4 13,5 -58,34c-105,42 -237,116 -237,132c0,42 128,224 200,284c70,59 179,127 191,119c7,-4 -10,-28 -43,-63c-95,-97 -172,-211 -207,-303c-17,-45 -5,-32 32,35c74,131 176,245 330,370c48,39 87,75 87,80c0,11 -34,-10 -113,-70l-57,-44l-31,22l-31,22l84,44c92,49 94,51 86,59c-3,3 -44,-15 -91,-41c-73,-40 -86,-43 -97,-30c-10,13 -6,18 31,35c24,11 33,18 19,15c-14,-3 -37,-8 -51,-11c-21,-5 -27,-2 -32,17c-3,12 -4,26 -2,29c2,4 47,17 100,30c52,13 95,27 95,32c0,17 -307,-10 -424,-37c-65,-15 -83,-11 -156,43l-35,25l29,-31c15,-17 42,-36 58,-43l30,-12l-63,-33c-76,-39 -74,-44 2,-10c76,35 339,86 339,66c0,-5 -24,-14 -52,-20c-136,-32 -296,-107 -373,-176c-25,-22 -26,-24 -5,-11c106,62 156,84 282,127c79,27 146,46 149,42c4,-4 10,-16 13,-28c6,-19 -5,-27 -91,-68c-144,-70 -244,-147 -342,-266c-21,-24 -21,-25 -36,-6c-14,18 -13,22 12,49c27,29 15,29 -18,0c-14,-12 -20,-2 -57,89c-38,96 -66,206 -74,287l-3,34l70,18c66,17 38,19 -42,3l-33,-6l0,143c0,228 32,395 112,591l39,98l-25,52c-14,29 -29,73 -32,98c-5,40 -3,50 21,78c30,36 30,29 -9,172c-55,205 -72,392 -40,439c14,20 23,23 60,18c87,-9 362,-168 540,-311c38,-31 78,-56 90,-56c11,0 47,9 80,20c115,40 252,62 389,63c145,1 233,-12 379,-55c55,-16 109,-27 120,-24c12,3 55,33 96,67c180,146 425,289 510,297c68,6 74,-5 68,-141c-4,-86 -15,-150 -48,-281l-42,-168l28,-29c24,-25 26,-33 21,-82c-3,-30 -15,-78 -28,-106l-22,-52l36,-77c54,-115 86,-214 107,-337c23,-136 35,-307 26,-370c-7,-42 -10,-46 -29,-41c-105,25 -286,49 -417,53l-155,6l-69,71c-37,39 -50,50 -28,25c22,-25 45,-56 51,-68c16,-28 -3,-35 -75,-28c-53,5 -69,-3 -38,-21c9,-5 39,-5 71,1c50,8 58,7 70,-9c7,-10 13,-30 13,-44l0,-26l-95,4c-67,3 -95,1 -95,-7c0,-13 0,-13 106,-36c76,-17 80,-19 76,-41c-6,-34 -15,-37 -77,-20c-66,17 -75,4 -10,-14c53,-15 61,-23 40,-43c-13,-14 -21,-13 -72,5c-32,11 -84,35 -117,54c-93,55 -88,34 7,-29c47,-32 95,-72 106,-90c11,-17 36,-48 56,-67c86,-82 285,-349 285,-381c0,-10 -136,-79 -219,-112c-24,-10 -41,-20 -39,-23c8,-7 166,45 220,72c26,13 51,24 56,24c5,0 17,-18 27,-40c10,-22 20,-38 22,-36c3,2 -4,24 -15,48l-19,43l62,41l62,42l31,-52c17,-28 43,-80 58,-116c33,-78 47,-98 33,-44c-16,56 -56,150 -85,195c-13,22 -20,39 -14,39c5,0 12,0 15,0c3,0 29,22 57,50c28,27 52,50 54,50c7,0 78,-125 100,-177c15,-34 23,-46 19,-28c-7,36 -82,190 -100,205c-11,9 -6,25 25,83c46,85 88,223 97,319c3,38 9,70 12,73c4,2 49,-3 101,-11c125,-18 192,-17 86,2c-43,8 -101,20 -130,27l-51,13l-7,150c-10,241 -50,421 -132,607l-44,97l19,50c10,27 22,73 25,102c5,46 3,58 -20,91l-26,38l19,67c67,234 90,446 56,512c-50,97 -253,14 -594,-242c-68,-51 -113,-78 -130,-78c-14,0 -79,13 -143,30c-239,60 -444,57 -706,-10c-44,-11 -92,-20 -107,-20c-17,0 -71,33 -162,99c-157,115 -267,182 -373,228c-93,41 -147,43 -187,9zm2227,-1691c143,-23 202,-37 207,-50c9,-24 -36,-205 -72,-291c-20,-49 -42,-104 -49,-121l-12,-33l-30,31c-48,51 -150,128 -236,180c-45,27 -78,49 -74,49c23,0 173,-89 256,-151c80,-59 88,-64 55,-29c-87,91 -240,181 -367,216c-64,18 -67,20 -61,44c3,14 7,27 9,29c5,5 250,-57 292,-75c20,-8 45,-22 57,-32l20,-17l-20,24c-31,36 -106,69 -227,101c-100,26 -138,40 -111,40c8,0 152,-25 258,-46c49,-9 160,-60 158,-72c-2,-7 4,-9 14,-5c11,4 14,2 9,-5c-3,-6 3,-16 14,-22c20,-10 21,-10 11,8c-13,25 -66,58 -139,88c-42,17 -50,23 -35,28c11,3 35,22 54,42l34,37l-55,-37c-42,-29 -62,-37 -85,-33c-16,2 -78,13 -137,23c-100,17 -107,19 -111,43c-2,14 -8,35 -12,45c-8,19 -4,19 141,13c82,-4 192,-13 244,-22zm-1553,-81c-3,-3 -12,-4 -19,-1c-8,3 -5,6 6,6c11,1 17,-2 13,-5zm1158,-4c4,-7 -3,-8 -22,-4c-38,9 -42,14 -10,14c14,0 29,-5 32,-10zm-1222,-7c-7,-2 -19,-2 -25,0c-7,3 -2,5 12,5c14,0 19,-2 13,-5zm2,-123c3,-5 -18,-21 -47,-36c-109,-55 -239,-152 -284,-212c-26,-33 -23,-32 36,18c134,111 330,219 330,182c0,-4 -15,-16 -32,-27c-132,-76 -249,-197 -322,-334l-33,-62l-56,61c-32,34 -57,69 -57,79c0,30 116,147 204,206c46,30 121,73 167,95c98,46 86,42 94,30zm1349,-53c105,-54 225,-139 290,-205l38,-40l-20,-29c-11,-15 -32,-39 -47,-53l-27,-25l-21,30c-60,85 -179,190 -357,318c-14,10 -2,6 25,-9c63,-34 169,-108 218,-152c20,-19 37,-30 37,-24c0,21 -133,130 -215,177c-69,39 -83,50 -74,62c15,17 31,12 153,-50zm-219,10c-11,-6 -22,-3 -36,9c-30,27 -22,35 16,17c29,-14 33,-19 20,-26zm130,-84c115,-79 206,-161 265,-238l44,-57l-40,-34c-36,-31 -72,-50 -78,-42c-2,1 -25,41 -52,88c-27,47 -68,108 -91,137c-24,29 -43,56 -43,59c0,4 -29,33 -65,66c-63,58 -80,88 -51,88c8,0 58,-30 111,-67z" id="svg_2"/>
   <path d="m3130,-2834c0,-2 8,-10 18,-17c15,-13 16,-12 3,4c-13,16 -21,21 -21,13z" id="svg_3"/>
   <path d="m1434,-918c-51,-8 -40,-87 46,-348c33,-100 60,-189 60,-197c0,-8 -16,-34 -35,-57c-40,-48 -42,-59 -17,-90l18,-23l54,69c30,38 86,102 125,143c38,40 60,68 47,62c-12,-7 -44,-11 -70,-9c-48,4 -44,9 18,25l35,10l-62,18c-75,21 -106,47 -46,38c21,-3 55,-11 76,-18c20,-7 37,-11 37,-9c0,10 -91,54 -125,59c-63,11 -79,27 -114,115c-41,105 -41,173 1,178c40,5 75,-18 179,-114c105,-96 149,-130 149,-115c0,6 -28,41 -62,77l-63,68l65,-44c36,-24 94,-71 129,-104c52,-50 61,-56 48,-30c-35,69 -230,215 -361,269c-45,19 -106,31 -132,27z" id="svg_4"/>
   <path d="m3570,-934c-157,-59 -332,-186 -379,-275c-24,-43 -3,-31 63,38c37,38 95,88 129,112l62,42l-61,-64c-72,-77 -90,-99 -77,-99c6,0 60,47 121,104c109,102 163,135 199,122c28,-11 11,-112 -33,-197c-37,-70 -41,-74 -90,-89c-46,-14 -124,-55 -124,-66c0,-3 4,-3 9,0c5,3 37,12 71,20c55,13 61,13 49,1c-8,-8 -38,-23 -68,-33l-54,-18l44,-14l44,-15l-36,-3c-20,-2 -55,4 -79,12l-43,15l64,-62c35,-34 95,-99 133,-144c62,-75 70,-81 82,-65c20,26 17,80 -8,115c-28,39 -26,68 12,197c77,262 81,278 78,326c-3,48 -4,49 -38,51c-19,1 -51,-4 -70,-11z" id="svg_5"/>
   <path d="m3447,-1125c-20,-14 -37,-28 -37,-31c0,-7 78,35 85,46c11,17 -9,11 -48,-15z" id="svg_6"/>
   <path d="m1599,-1124c11,-13 71,-40 71,-31c0,5 -66,45 -75,45c-4,0 -2,-6 4,-14z" id="svg_7"/>
   <path d="m3514,-1154c-57,-21 -159,-85 -150,-93c11,-11 226,96 226,112c0,8 -12,5 -76,-19z" id="svg_8"/>
   <path d="m1533,-1165c38,-26 60,-37 160,-76l52,-21l-28,30c-33,34 -122,76 -182,86l-40,7l38,-26z" id="svg_9"/>
   <path d="m2305,-1222c4,-13 18,-54 33,-93c14,-38 34,-101 43,-140l18,-70l0,65c1,82 -21,168 -55,220c-29,44 -49,53 -39,18z" id="svg_10"/>
   <path d="m2771,-1223c-1,-10 -15,-75 -31,-144c-17,-69 -29,-127 -27,-129c4,-4 67,134 85,186c7,18 4,36 -9,65c-10,23 -18,32 -18,22z" id="svg_11"/>
   <path d="m2026,-1588c85,-47 123,-82 176,-161c44,-67 50,-72 44,-42c-14,77 -96,169 -187,211c-68,30 -92,24 -33,-8z" id="svg_12"/>
   <path d="m3033,-1585c-63,-32 -126,-99 -159,-168c-23,-51 -31,-98 -16,-96c4,0 22,32 41,72c40,83 111,159 176,188c25,11 45,22 45,24c0,12 -41,3 -87,-20z" id="svg_13"/>
   <path d="m1841,-1670c-24,-5 -45,-11 -47,-12c-1,-2 46,-3 104,-3c98,0 111,-2 156,-27c30,-18 43,-22 35,-11c-37,44 -162,71 -248,53z" id="svg_14"/>
   <path d="m3140,-1669c-42,-9 -111,-44 -129,-65c-7,-8 14,-1 46,17c55,30 64,32 160,32c56,0 94,3 85,6c-31,11 -127,17 -162,10z" id="svg_15"/>
   <path d="m1870,-1753c-30,-7 -75,-23 -98,-36c-24,-12 -75,-30 -114,-40c-73,-19 -72,-25 5,-36c56,-9 79,-32 102,-105c58,-177 180,-241 368,-193c79,21 99,14 107,-38c5,-32 6,-33 17,-13c45,80 -1,279 -86,377c-66,75 -190,109 -301,84zm50,-71c0,-2 -7,-17 -15,-32c-33,-63 -7,-177 50,-222c15,-12 43,-24 61,-28c49,-9 119,36 151,96l24,45l-5,-44c-8,-74 -74,-121 -170,-121c-117,0 -214,132 -188,255c6,30 14,41 32,46c29,8 60,11 60,5zm114,-22c32,-31 14,-84 -29,-84c-46,0 -62,57 -23,84c28,20 33,20 52,0z" id="svg_16"/>
   <path d="m3110,-1749c-135,-27 -242,-147 -276,-312c-11,-54 -12,-79 -3,-114c14,-54 39,-81 39,-42c0,13 9,35 19,48l19,24l69,-18c37,-9 93,-17 124,-17c115,0 215,85 260,218c24,71 43,88 113,101c64,12 66,17 9,26c-26,4 -80,22 -120,40c-107,49 -174,61 -253,46zm177,-98c17,-22 16,-105 0,-146c-35,-82 -113,-137 -194,-137c-53,0 -119,26 -143,55c-8,11 -10,16 -3,11c9,-5 11,-2 7,8c-3,9 -9,14 -13,12c-3,-2 -7,17 -9,42l-2,47l18,-40c39,-84 129,-133 188,-102c93,48 129,153 84,241l-19,38l37,-6c20,-3 43,-13 49,-23zm-119,-32c7,-48 -45,-69 -72,-29c-21,29 -20,34 5,59c18,18 23,19 42,6c12,-8 23,-24 25,-36z" id="svg_17"/>
   <path d="m1759,-2159c43,-41 136,-79 164,-68c6,3 3,6 -8,6c-26,1 -116,43 -163,77c-35,25 -35,24 7,-15z" id="svg_18"/>
   <path d="m3480,-2127c0,-5 -16,-28 -36,-52c-37,-43 -87,-73 -158,-97l-41,-13l40,6c56,8 115,35 148,69c33,32 61,83 53,92c-3,3 -6,1 -6,-5z" id="svg_19"/>
   <path d="m3385,-2140c-11,-17 -94,-62 -143,-76l-47,-14l45,6c25,3 66,18 92,32c49,26 90,62 70,62c-6,0 -14,-4 -17,-10z" id="svg_20"/>
   <path d="m1619,-2188c18,-34 80,-79 127,-92c25,-7 47,-10 51,-6c3,3 -1,6 -10,6c-32,0 -106,39 -142,76c-20,20 -32,28 -26,16z" id="svg_21"/>
   <path d="m2400,-2269c-19,-10 -39,-30 -45,-45c-14,-40 4,-60 56,-64c24,-2 49,-8 56,-14c18,-14 16,-45 -2,-55c-12,-7 -9,-17 20,-58c43,-60 60,-112 51,-158c-5,-26 -25,-53 -81,-106c-41,-38 -92,-79 -115,-91c-42,-21 -50,-37 -25,-47c16,-6 92,41 178,109c27,21 58,38 69,38c12,0 44,-17 72,-38c106,-79 206,-130 206,-104c0,6 -24,24 -52,40c-29,16 -89,63 -133,105l-80,74l0,55c1,52 15,86 67,159c9,13 8,20 -5,34c-9,9 -17,20 -17,24c0,19 31,33 59,28c80,-16 97,79 21,118c-45,24 -254,21 -300,-4zm205,-21c4,-6 -11,-10 -39,-10l-45,0l5,-57c4,-52 3,-55 -7,-28c-7,17 -20,42 -31,57c-11,16 -16,32 -13,38c8,13 122,13 130,0z" id="svg_22"/>
   <path d="m1986,-2401c-31,-33 -56,-64 -56,-68c0,-4 -64,-11 -142,-14c-168,-7 -318,-26 -318,-39c0,-6 11,-7 24,-4c54,13 170,26 299,32l138,7l-5,-44l-6,-44l11,44l11,43l59,-6c39,-5 59,-3 59,4c0,6 -23,10 -55,10c-30,0 -55,4 -55,9c0,10 34,56 74,99c16,17 27,32 24,32c-3,0 -31,-27 -62,-61z" id="svg_23"/>
   <path d="m2855,-2459c-8,-15 3,-31 21,-31c9,0 14,7 12,17c-4,20 -24,28 -33,14z" id="svg_24"/>
   <path d="m2935,-2460c-4,-6 -3,-14 0,-20c9,-15 35,-12 35,4c0,17 -27,29 -35,16z" id="svg_25"/>
   <path d="m2160,-2475c0,-8 7,-15 15,-15c8,0 15,7 15,15c0,8 -7,15 -15,15c-8,0 -15,-7 -15,-15z" id="svg_26"/>
   <path d="m2226,-2468c-8,-13 11,-35 23,-28c16,10 14,36 -3,36c-8,0 -17,-4 -20,-8z" id="svg_27"/>
   <path d="m2085,-2479c-3,-5 -1,-12 5,-16c12,-7 30,2 30,16c0,12 -27,12 -35,0z" id="svg_28"/>
   <path d="m2856,-2555c-6,-17 17,-31 34,-20c8,5 8,11 -1,21c-15,18 -25,18 -33,-1z" id="svg_29"/>
   <path d="m2190,-2570c0,-5 4,-10 9,-10c6,0 13,5 16,10c3,6 -1,10 -9,10c-9,0 -16,-4 -16,-10z" id="svg_30"/>
   <path d="m2932,-2572c5,-15 37,-18 41,-3c1,6 -9,12 -22,13c-16,3 -22,-1 -19,-10z" id="svg_31"/>
   <path d="m2900,-2735c0,-2 26,-23 58,-46c31,-23 72,-56 91,-73c33,-31 34,-31 16,-3c-25,39 -165,143 -165,122z" id="svg_32"/>
   <path d="m2050,-2969c0,-16 82,-81 140,-111c132,-67 271,-82 527,-56c194,19 253,39 330,109c29,27 52,51 50,54c-3,2 -31,-8 -63,-23c-107,-48 -165,-64 -289,-79c-154,-19 -292,-19 -387,-1c-87,17 -207,59 -265,92c-24,14 -43,21 -43,15z" id="svg_33"/>
   <path d="m3831,-3316c0,-11 3,-14 6,-6c3,7 2,16 -1,19c-3,4 -6,-2 -5,-13z" id="svg_34"/>
   <path d="m3515,-3511c-95,-63 -247,-134 -422,-197c-89,-33 -187,-74 -217,-93c-85,-51 -206,-159 -256,-227c-24,-34 -47,-62 -51,-62c-3,0 -19,18 -34,40c-40,58 -157,165 -234,215c-79,51 -142,78 -316,135c-139,45 -315,125 -405,183c-30,20 -57,34 -59,31c-16,-16 155,-135 274,-190c43,-20 142,-58 222,-85c79,-27 167,-61 196,-75c119,-60 257,-188 323,-300c14,-24 29,-44 33,-44c3,0 21,25 40,56c40,67 136,171 211,229c69,53 125,81 270,135c168,62 305,130 395,197c123,92 143,127 30,52z" id="svg_35"/>
  </g>
 </g>
</svg>